<?xml version="1.0" encoding="UTF-8"?>
<!DOCTYPE svg PUBLIC "-//W3C//DTD SVG 1.1//EN" "http://www.w3.org/Graphics/SVG/1.1/DTD/svg11.dtd">
<!-- Creator: CorelDRAW -->
<svg xmlns="http://www.w3.org/2000/svg" xml:space="preserve" width="2480px" height="3508px" version="1.1" style="shape-rendering:geometricPrecision; text-rendering:geometricPrecision; image-rendering:optimizeQuality; fill-rule:evenodd; clip-rule:evenodd"
viewBox="0 0 2480 3507.43"
 xmlns:xlink="http://www.w3.org/1999/xlink"
 xmlns:xodm="http://www.corel.com/coreldraw/odm/2003">
 <defs>
  <style type="text/css">
   <![CDATA[
    .fil0 {fill:#171718}
   ]]>
  </style>
 </defs>
 <g id="Layer_x0020_1">
  <metadata id="CorelCorpID_0Corel-Layer"/>
  <path class="fil0" d="M1065.93 2706.4c3.29,-17.25 23.9,-70.42 33,-83.71 16.62,26.47 -0.49,60.16 93.97,127.07l4.04 3.08c-33.63,-5.15 -107.94,-29.87 -131.01,-46.44zm475.32 -3.91c-55.45,35.65 -154.56,63.72 -235.78,60.7 -160.04,-5.96 -204.07,-147.26 -187.73,-177.15 20.17,-36.91 72.63,-88.57 115.61,-109.85 78.51,-38.85 169.89,-26.78 259.31,-13.78 -7.98,21 -16.4,25.24 -22.35,60.82 -8.01,47.84 3.47,94.79 31.94,131.93 6.29,8.22 12.74,15.72 18.45,23.79 5.93,8.37 14.46,15.87 20.55,23.54zm-492.92 -4.58c-24.41,-13.56 -47.09,-27.65 -68.93,-42.48 5.88,-21.18 21.25,-53 31.71,-70.65 6.76,-11.38 12.86,-22.75 20.3,-32.42l22.18 -30.56c15.83,-22.56 54.41,-57.6 80.29,-75.58 9.64,-6.7 21.05,-13.77 33.08,-19.61 54.73,-26.57 109.37,-34.44 177.47,-28.99 52.59,4.21 128.34,17.78 177.69,30.79 -4.29,6.36 -6.11,6.36 -10.77,11.55 -12.05,13.41 -14.58,5.46 -57.4,0.01 -85.27,-10.87 -172.26,-13.83 -244.81,30.82l-55.06 41.97c-40.4,40.37 -70.97,97.21 -91.78,150.76 -3,7.72 -9.26,29.03 -13.97,34.39zm-84.33 -52.81c-11.56,-5.96 -26.22,-17.75 -37.82,-25.34 -43.36,-28.34 -70.43,-47.75 -123.84,-68 -69.04,-26.17 -146.45,-30.46 -219.78,-10.7 7.31,-11.87 66.99,-67.88 82.11,-79.24l165.16 -129.98c13.34,-9.4 25.63,-19 39.18,-28.23l114.24 -81.87c14.24,-11.36 24.95,-19.89 37.74,-29.76l25.62 -22.77c32.8,-30.31 59.06,-58.72 82.31,-99.12 4.26,-7.41 7.79,-15.74 12.42,-21.18 24.14,44.35 95.14,75.12 140.5,88.52 9.95,44.26 36.39,105.08 63.94,138.69 19.16,23.39 45.88,49.24 70.8,66.3 28.94,19.81 56.91,33.77 91.06,45.98 8.22,2.94 16.58,5.87 25.1,8.65 14.99,4.9 20.02,5.61 26.37,10.92 -25.38,7.07 -11.4,8.6 -41.65,2.03 -163.6,-35.51 -312.39,-65.49 -441.39,62.7 -39.04,38.79 -69.76,83.72 -94.41,133.39 -5.4,10.9 -11.68,31.5 -17.66,39.01zm600.56 59.19c-7.04,-21.19 -113.02,-88.08 -70.93,-204.14 12.08,-33.3 37.1,-66.7 70.94,-76.44 50.71,-14.6 193.87,41.33 260.64,-2.99 87.32,-57.96 8.27,-153.35 45.79,-232.61 20.26,-42.81 52.25,-52.78 15.38,-95.25 112.41,-43.31 11.96,-62.82 42.68,-137.66 4.51,-11 8.23,-10.54 27.38,-16.77 42.04,-13.69 167.66,-42.95 135.62,-117.56 -7.5,-17.45 -28.57,-36.77 -39.31,-47.22 -43.31,-42.13 -92.45,-96.61 -102.2,-159.17 -15.95,-102.32 66.72,-198.94 -86.88,-416.99 -42.61,-60.5 -76.37,-89.43 -126.92,-132.48 -78.98,-67.24 -190.6,-116.45 -306.33,-132.46 -194.37,-26.88 -380.93,55.45 -525.5,165.16 -43.06,32.67 -101.17,87.22 -121.16,138.2 -15.66,39.93 -13.55,106.21 35.34,124.83 20.61,7.85 52.98,11.64 76.61,10.3 58.58,-3.32 85.3,-25.9 127.58,-47.37 31.19,-15.84 35.8,-14.52 51.69,12.99 37.61,65.07 -16.16,143.43 -52.25,186.67 -71.4,85.53 -181.2,54.4 -205.75,144.3 -15.1,55.32 16.07,100.63 51.23,116.26 49.03,21.81 97.26,-5.89 143.49,-16.39 111.27,-25.28 207.2,22.28 245.58,88.94 63.79,110.82 16.16,259.21 117.21,405.66 3.93,5.7 4.73,7.91 8.61,12.55 3.65,4.35 6.52,6.59 9.86,11.12 22.51,30.48 19.85,22.21 44.37,44.29 8.94,8.04 17.78,12.31 24.94,20.08 -35.11,-13.83 -75.74,-52.57 -100.14,-81.89 -8.93,-10.73 -16.35,-22.58 -24.52,-36.62 -63.4,-108.83 -53,-264.06 -122.14,-362.75 -17.85,-25.48 -36.25,-43.66 -64.67,-57.68 -29.47,-14.55 -67.34,-20.72 -104.48,-17.42 -11.19,0.99 -39.89,5.44 -48.89,10.01 -9.04,4.59 -9.2,13.78 2.25,15.21 9.37,1.16 18.65,-1.35 30.94,0.78 52.35,9.06 110.88,64.82 115.25,129.64 3.11,46.19 -20.2,101.42 -46.05,135.9 -4.57,6.09 -7.58,10.95 -12.52,17.01 -32.88,40.31 -28.6,32.07 -60.58,61.74 -23.82,22.11 -24.41,21.23 -50.91,41.82l-193.49 139.65c-3.23,2.59 -4.6,4.39 -7.79,6.85l-44.6 33.52c-6.05,4.65 -10.28,8.62 -16.12,13.33 -6.18,4.99 -11.95,9.18 -17.92,13.82 -11.37,8.82 -21.2,20.53 -32.25,28.71 -29.65,21.95 -66.39,60.59 -93.26,88.21 -3.66,3.76 -32.6,25.89 -16.16,33.42 5.1,2.35 39.45,-8.05 48.08,-10.05 118.58,-27.55 234.72,18.79 324.05,87.41 10.48,8.06 25.56,17.62 36.62,24.56 12.6,7.91 24.5,16.19 36.94,24.19 157.7,101.27 356.23,124.82 528.17,39.22 12.26,-6.11 31.84,-12.5 36.48,-24.44zm-158.39 -601.1c18.64,7.38 43.2,22.86 60.19,33.45 59.86,37.32 54.26,124.23 117.15,165.35 50.04,32.72 80.06,41.27 145.83,41.61 28.53,0.14 59.57,-0.98 86.25,6.71 34.83,10.03 32.18,30.34 9.92,49.61 -40.64,35.18 -85.79,9.34 -137.85,-14.54 -68.71,-31.51 -108.09,-50.86 -162.35,-94.78l-25.15 -21.29c-4.89,-4.39 -7.39,-6.56 -11.79,-11.37 -8.64,-9.44 -14.11,-14.97 -22.3,-26.13 -21.23,-28.92 -49.61,-85.33 -59.9,-128.62zm-342.49 -292.31c38.32,-3.24 73.86,11.55 99.49,27.99 21.54,13.82 43.49,43.41 57.64,72.95 21.27,44.4 48.95,157.8 55.43,206.33 -44.25,-9.2 -95.96,-44.45 -122.29,-80.34 -9.91,-13.51 0.95,-16.85 6.64,-54.09 6.95,-45.55 -1.5,-80.02 -22.96,-110.89 -14.96,-21.52 -49.27,-49.86 -73.95,-61.95zm657.89 608.68c-55.93,-2.21 -131.57,-20.83 -175.42,-42.41 -60.61,-29.83 -91.91,-51.45 -128.53,-90.7 -38.9,-41.7 -60.7,-80.79 -78.87,-138.19 -38.42,-121.41 -12.21,-252.31 -97.4,-339.07 -60.63,-61.75 -162.83,-78.15 -251.96,-53.73 -28.43,7.8 -58.86,23.32 -90.82,19.47 -67.34,-8.13 -105.5,-113.11 -17.05,-154.57 120.69,-56.58 230.67,-23.44 324.87,57.28 21.25,18.21 57.24,66.04 73.13,91.24 104.86,166.24 73.9,345.11 177.42,478.26 50.19,64.57 118.14,100.8 189.01,137.85 17.89,9.35 63.21,25.14 75.62,34.57zm-563.04 -801.79c8.76,-31.11 7.42,-39.25 27.85,-59.41 16.9,-16.68 31.86,-26.67 66.47,-22.17 93.06,12.12 102.93,158.75 129.79,224.4 55.69,136.13 137.37,84.25 176.51,179.81 20.29,49.54 9.49,107.95 30.45,148.74 30.65,59.66 122.9,75.33 190.34,76.41 12.19,0.19 80.1,-5.79 81.83,-5 5.49,7.01 -0.11,9.75 -4.71,17.91 -3.06,5.42 -6.06,12.77 -8.32,19.12 -17.13,48.08 8.61,105.27 4.08,152.16 -5.01,-0.87 -7.06,-3.75 -12.86,-6.97 -77.1,-42.77 -221.98,35.49 -298.85,-124.89 -47.39,-98.88 -29.52,-70.4 -132.71,-135.08 -6.13,-3.84 -8.16,-3.49 -10.7,-10.32 -1.53,-4.13 -3.43,-13.8 -4.58,-18.66 -24.48,-103.61 -41.02,-209.52 -101.71,-298.85 -34.39,-50.62 -36.08,-52.07 -82.07,-97.17 -18.83,-18.47 -45.79,-32.2 -50.81,-40.03zm-3.19 -48.76c-0.4,-51.89 25.8,-94.77 66.14,-121.01 47.45,-30.86 105.19,-11.98 144.09,13.48 31.59,20.69 48.25,43.52 70.03,69.09 56.79,66.65 90.38,156.86 160.87,212.41 13.28,10.47 9.71,11.1 16.02,30.23 16.85,51.07 46.02,116.5 74.76,159.32 18.97,28.26 39.92,51.74 72.1,69.28 57.42,31.3 96.04,10.32 146.74,-9.82 6,39.44 43.91,61.06 -12.97,81.19 -11.03,3.9 -25.61,4.62 -34.71,9.46 -1.57,15.02 11.67,14.92 19.74,25.78 7.95,10.68 12.39,19.48 -0.6,27.18 -18.39,10.91 -59.13,13.15 -82.85,13.2 -56.82,0.12 -113.92,-7.05 -155.74,-33.05 -52.04,-32.34 -41.41,-66.84 -51.88,-135.68 -8.82,-58.01 -35.85,-92.36 -72.96,-114.81 -36.8,-22.26 -75.15,-29.07 -102.76,-84.81 -44.65,-90.11 -39.68,-207.22 -124.58,-250.83 -44.94,-23.08 -87.96,-10.71 -119.37,24.49l-12.07 14.9zm-15.43 39.13c-20.28,-5.77 -30.14,-14.47 -67.82,-23.9 -28.35,-7.1 -53.89,-9.34 -83.66,-8.09 6.2,-7.62 27.13,-19.05 41.86,-34.72 19.51,-20.74 49.15,-65.93 60.08,-93.92 13.26,-33.94 2.42,-22.76 30.33,-47.62 21.74,-19.37 61.96,-44.21 99.06,-54.79 187.05,-53.3 285.23,103.1 337.77,255.37 11.71,33.96 29.61,81.13 36.83,116.48 -20.69,-18.77 -35.49,-36.87 -54.17,-63.21 -47.22,-66.59 -91.2,-154.66 -157.21,-201.3 -51.59,-36.45 -116.49,-55.99 -178.79,-13.39 -42.08,28.76 -75.32,92.88 -64.28,169.09zm398.41 -258.57l10.49 8.82c0.34,0.29 0.83,0.67 1.17,0.96 20.88,17.44 27.86,27.53 45.5,45.05 50.5,50.15 92.8,160.89 113.85,231.9 20.5,69.2 47.75,217.24 102.08,271.12 25.27,25.06 13.76,17.51 49.87,37.31 -29.61,8.89 -68.56,-7.73 -86.26,-21.97 -57.81,-46.54 -87.32,-170.69 -102.25,-245.59 -21.31,-107 -54.19,-226.32 -121.94,-312.38 -4.46,-5.67 -6.47,-6.77 -12.51,-15.22zm-466.26 -45.24c30.16,-13.93 122.89,-33.03 159.93,-37.52 191.56,-23.26 303.67,60.06 368.16,221.47 47.92,119.93 67.49,288.6 115.16,382.37 10.83,21.32 28.28,48.4 42.06,59.15 36.85,28.76 66.15,37.47 117.05,31.92 14.41,-1.57 25.28,-7.42 37.55,-11.11 -0.05,5.25 -2.48,13.26 -4.89,18.51 -3.24,7.05 -6.52,7.22 -14.26,10.92 -72.56,34.69 -126.68,26.39 -176.02,-37.05 -7.98,-10.25 -14.16,-17.3 -21.49,-29.01 -67.42,-107.74 -95.3,-263.56 -154.79,-401.82 -17.44,-40.53 -51.95,-91.14 -80.73,-121.74 -73.42,-78.04 -201.64,-96.8 -297.7,-39.85 -11.65,6.91 -20.47,11.94 -30.74,19.85 -9.49,7.31 -20.33,14.76 -26.86,21.1 -2.81,-34.94 -4.53,-56.67 -28.67,-83.02l-2.85 -3.12c-0.18,-0.2 -0.64,-0.68 -0.91,-1.05zm-121.42 -160.89c125.31,-5.28 164.18,-61.15 243.32,-108.78 37.22,-22.4 84.42,-43.15 139.08,-38.54 91.42,7.72 119.81,75.44 229.95,122.55 105.81,45.27 159.54,3.37 271.45,80.5 35.56,24.51 72.04,101.66 71.48,102.81l-1.63 3.07c-10.13,-27.9 -57.42,-69.98 -86.83,-86.78 -91.87,-52.46 -204.76,-1.32 -329.11,-103.11l-44.33 -39.89c-87.63,-71.91 -136.19,-80.51 -249.17,-22.94 -32.91,16.77 -70.84,46.33 -106.92,65.92 -17,9.23 -41.29,19.41 -62.09,24.35 -19.19,4.56 -51.87,9.01 -71.77,2.44l-3.43 -1.6zm301.59 102.62c-66.8,5.42 -177.07,32.8 -230.08,59.39 -32.39,16.25 -60.13,36.42 -101.01,44.47 -38.9,7.66 -99.75,5.04 -117.17,-22.61 -30.97,-49.16 1.89,-114.95 42.61,-153.02 3.9,-3.65 5.28,-4.04 9.81,-7.12 42.66,-29.06 48.24,-10.76 102.92,-3.41 22.06,2.97 45.71,1.21 67.17,-3.61 39.17,-8.82 70.43,-26.43 100.19,-45.19 66.89,-42.16 165,-117.23 257.76,-62.31 42.07,24.9 66.96,61.03 121.94,97.26 27.48,18.1 63.08,35.12 101.37,44.18 115.19,27.27 206.43,-16.7 294.95,141.35 65.58,117.1 32.46,131.1 29.33,238.68 -2.44,83.82 39.31,142.22 94.71,196.06 20.92,20.34 85.12,71.97 34.95,106.74 -6.36,4.41 -13.58,9.48 -21.49,14.41 -14.05,8.76 -35.9,15.11 -53.75,19.95 -64.35,17.45 -122.83,60.63 -188.25,-51.66 -57.54,-98.78 -55.19,-262 -156.97,-422.84 -12.89,-20.37 -50.58,-65.53 -66.75,-78.74 -89.19,-72.87 -193.94,-122.37 -322.24,-111.98zm-330.59 -140.03c7.77,-6.11 15.5,-11.16 23.56,-16.56 128.67,-86.25 266.03,-150 432.08,-142.91 130.49,5.58 236.26,47.46 332.56,120.05l45.85 36.46c7.57,5.62 13.18,13.11 20.33,19.63 6.65,6.08 35.9,35.93 39.32,42.95 -18.62,-6.52 -33.91,-16.77 -56.86,-23.35 -77.2,-22.14 -117.45,-8.03 -192.6,-41.39 -30.15,-13.39 -70.79,-38.38 -97.04,-59.01 -28.44,-22.35 -55.63,-44.07 -99.04,-57.05 -93.24,-27.88 -182.26,30.15 -234.56,68.98 -7.72,5.74 -14.81,10.1 -23.47,16.59 -19.65,14.72 -50.2,32.45 -74.61,41.36 -41.4,15.12 -91.77,18.66 -138.37,13.77l22.85 -19.52z"/>
  <path class="fil0" d="M787.1 2191.96c-16.67,30.95 -63.49,11.16 -49.47,-24.01 11.92,-29.89 66.2,-7.07 49.47,24.01zm225.59 -283.24c30.43,-4.82 55.99,18.21 60.01,43.64 4.91,31.08 -18.25,55.95 -43.94,59.8 -69.04,10.36 -88.7,-91.93 -16.07,-103.44zm-319.16 0.03c14.1,-6.15 12.06,-7.51 20.22,-19.46l237.82 58.2c-3.49,35.89 5.24,31.74 11.33,55.43l-174.05 141.93c-11.73,-4.54 -13.79,-6.8 -30.33,-8.83l-64.99 -227.27zm-184.46 -26.13c1.15,-20.94 21.87,-18.31 23.9,-6.24 1.77,10.52 -11.78,21.4 -23.9,6.24zm155.51 -41.49c39.46,-7.33 50.52,49.27 12.02,57.07 -40.73,8.26 -52.11,-49.63 -12.02,-57.07zm-163.75 -197.8c-5.71,-21.43 14.62,-22.74 19.46,-13.04 6.23,12.45 -6.38,21.97 -19.46,13.04zm180.06 -48.99c41.73,-13.75 52.76,44.2 20.09,54.18 -38.97,11.9 -50.6,-44.12 -20.09,-54.18zm36.25 -157.46c18.2,-4.26 21.99,-11.25 29.33,-25.08l176.81 42.19 3.13 10.15c0.68,3.6 1.2,7.2 1.77,11l-201.7 113.77c-3.37,-1.05 -19.95,-9.72 -24.85,-12.65l15.51 -139.38zm252.04 -16.71c45.97,-16.8 68.44,56.64 20.72,72.34 -35.41,11.65 -79.32,-50.94 -20.72,-72.34zm-265.57 -44.32c28.46,-9.2 40.56,36.21 13.14,44.26 -15.12,4.44 -27.3,-5.06 -30.48,-15.28 -5.77,-18.54 4.51,-24.83 17.34,-28.98zm93.81 830.82c15.04,-18.21 7.69,-32.03 2.26,-50.91 6.39,-4.23 15.69,-12.7 21.61,-17.96l153.25 -124.63c26.15,14.92 48.28,25.24 81.77,5.56 18.68,-10.97 40.76,-40.28 30.64,-76.28 -7.29,-25.88 -29.31,-47.14 -59.65,-50.35 -44.43,-4.7 -57.67,23.11 -71.77,38.86l-237.86 -57.66c-1.31,-27.99 -12.69,-42.31 -36.24,-48.51l17.62 -159.06c31.29,-8.68 40.02,-28.06 35.12,-63.23l200.31 -113.36c8.25,5.35 14.77,14.74 28.04,19.14 12.6,4.17 27.37,2.97 38.95,-1.95 52.22,-22.18 36.87,-101.68 -16.32,-105.47 -27.3,-1.95 -50.18,17 -55.81,35 -42.09,-7.6 -96.59,-22.25 -140.94,-31.95 -7.48,-1.64 -14.89,-3.58 -22.26,-5.21 -22.51,-5 -15.25,-2.32 -18.12,-9 -3.39,-7.91 -5.73,-23.15 -26.82,-30.27 -33.95,-11.46 -63.19,20.28 -50.54,52.71 4.47,11.45 16.12,22.07 30.67,24.56l-15.9 139.39c-21.22,5.37 -36.33,17.83 -38.32,42.39l-109 8.24c-8.07,-9.77 -12.67,-20.13 -30.92,-17.97 -32.65,3.87 -31.95,51.76 -0.69,54.37 20.74,1.74 24.06,-8.11 31.57,-19.88l108.99 -8.88c14.82,20.45 0.52,14.95 29.48,29.24 0.59,0.28 2.62,1.35 3.05,1.58 0.36,0.19 1.27,1.33 1.53,0.88 0.27,-0.45 1.05,0.57 1.46,0.9l-17.71 156.09c-10,5.57 -36.1,10.12 -41.68,40.81l-75.36 5.31c-15,-29.07 -53.54,-19.97 -54.27,8.69 -0.79,30.86 42.08,39.75 54.3,8.49l76.25 -5.99c7.29,24.25 25.27,36.97 54.99,35.07l64.36 226.71c-35.08,12.13 -32.18,67.1 5.22,79.75 22.04,7.46 39.28,-3.77 48.74,-15.22z"/>
  <path class="fil0" d="M862.92 1713.35c-10.23,-69.77 91.84,-76.07 99.5,-14.77 3.64,29.08 -18.51,53.15 -42.91,56.65 -28.54,4.1 -53.17,-18.59 -56.59,-41.88zm33.87 -72.44c-86.44,20.35 -52.98,150.77 31.43,129.45 29.93,-7.56 58.84,-40.46 48.93,-80.78 -7.66,-31.2 -39.15,-58.37 -80.36,-48.67z"/>
  <path class="fil0" d="M862.77 1210.69c63.86,-10.8 73,80.46 17.62,92.15 -26.96,5.69 -50.96,-16.32 -55.38,-36.74 -6.39,-29.54 13.57,-51.32 37.76,-55.41zm-2.92 -17.42c-85.05,16.12 -59.71,139.21 21.94,126.37 82.59,-12.98 62,-142.28 -21.94,-126.37z"/>
  <path class="fil0" d="M583.59 1466.71c34.56,-13.51 53.22,39.7 18.79,51.64 -23.9,8.28 -47.8,-13.57 -35.28,-39.6 4.68,-9.75 5.98,-7.94 16.49,-12.04zm0.71 -15.89c-57.04,11.16 -41.24,92.83 16.75,83.11 21.09,-3.53 38.34,-23.66 33.57,-49.86 -3.79,-20.8 -24.82,-38.24 -50.32,-33.25z"/>
  <path class="fil0" d="M645.82 1240.71c24.63,-14.77 38.18,26.63 17.17,34.59 -23.59,8.92 -38.87,-21.57 -17.17,-34.59zm0.47 -17.04c-45.77,10.98 -30.77,80.13 17.7,67.56 46.14,-11.96 27.01,-78.28 -17.7,-67.56z"/>
  <path class="fil0" d="M613.45 2077.09c19.34,-6.51 31.55,24.41 9.84,31.47 -22.57,7.35 -29.89,-24.72 -9.84,-31.47zm-28.04 19.99c4.83,39 70.44,35.11 65.28,-8.46 -4.64,-39.22 -70.48,-33.58 -65.28,8.46z"/>
  <path class="fil0" d="M393.97 1778.56c-3.73,-4.16 -9.11,-8.02 -6.81,-15.76 1.26,-4.23 6.19,-9.4 12.94,-8.11 13.57,2.58 16.18,23.46 -6.13,23.87zm-6.02 -38.84c-34.88,12.9 -17.02,66.07 20.97,53.4 32.3,-10.77 16.51,-67.27 -20.97,-53.4z"/>
  <path class="fil0" d="M445.34 2013.95c3.95,2.83 1.51,-0.89 3.47,3.55 3.18,7.22 -0.28,3.18 -0.73,4.46 -8.09,2.08 -11.25,-2.05 -2.74,-8.01zm-20.67 7.23c1.9,25.33 45.07,21.96 40.93,-5.47 -3.82,-25.22 -43.07,-22.97 -40.93,5.47z"/>
  <path class="fil0" d="M400.1 1536.08c-29.08,11.25 -12.41,45.13 12.57,37.31 24.44,-7.66 9.97,-46.03 -12.57,-37.31z"/>
  <path class="fil0" d="M492.65 1356.81c-9.78,3.93 -19.63,11.56 -12.51,26.33 4.04,8.4 15.07,13.36 26.12,9.65 24.16,-8.1 9.29,-45.18 -13.61,-35.98z"/>
 </g>
</svg>
